<svg width="38" height="38" viewBox="0 0 38 38" fill="none" xmlns="http://www.w3.org/2000/svg">
<path d="M25.6765 3.53809H12.067C9.96221 3.54034 7.94423 4.37747 6.4559 5.86581C4.96756 7.35415 4.13043 9.37212 4.12817 11.4769V25.0864C4.13043 27.1912 4.96756 29.2092 6.4559 30.6975C7.94423 32.1859 9.96221 33.023 12.067 33.0253H25.6765C27.7813 33.023 29.7993 32.1859 31.2876 30.6975C32.776 29.2092 33.6131 27.1912 33.6154 25.0864V11.4769C33.6131 9.37212 32.776 7.35415 31.2876 5.86581C29.7993 4.37747 27.7813 3.54034 25.6765 3.53809ZM18.8718 25.0864C17.5259 25.0864 16.2103 24.6873 15.0913 23.9396C13.9722 23.1919 13.1 22.1291 12.585 20.8857C12.07 19.6423 11.9352 18.2741 12.1978 16.9541C12.4603 15.6342 13.1084 14.4217 14.0601 13.47C15.0118 12.5183 16.2242 11.8703 17.5442 11.6077C18.8642 11.3451 20.2324 11.4799 21.4758 11.9949C22.7192 12.51 23.782 13.3821 24.5297 14.5012C25.2774 15.6202 25.6765 16.9358 25.6765 18.2817C25.6746 20.0858 24.9571 21.8155 23.6814 23.0913C22.4056 24.367 20.6759 25.0845 18.8718 25.0864ZM27.3777 11.4769C27.0412 11.4769 26.7123 11.3772 26.4326 11.1902C26.1528 11.0033 25.9348 10.7376 25.806 10.4268C25.6772 10.1159 25.6435 9.77387 25.7092 9.44387C25.7748 9.11388 25.9368 8.81076 26.1748 8.57284C26.4127 8.33493 26.7158 8.1729 27.0458 8.10726C27.3758 8.04162 27.7178 8.07531 28.0287 8.20407C28.3395 8.33283 28.6052 8.55087 28.7922 8.83063C28.9791 9.11039 29.0789 9.4393 29.0789 9.77576C29.0789 10.2269 28.8996 10.6596 28.5806 10.9787C28.2616 11.2977 27.8289 11.4769 27.3777 11.4769ZM23.4083 18.2817C23.4083 19.1789 23.1422 20.056 22.6437 20.802C22.1452 21.548 21.4367 22.1295 20.6078 22.4728C19.7789 22.8162 18.8667 22.906 17.9867 22.731C17.1067 22.556 16.2984 22.1239 15.664 21.4895C15.0295 20.855 14.5975 20.0467 14.4224 19.1667C14.2474 18.2867 14.3372 17.3746 14.6806 16.5456C15.024 15.7167 15.6054 15.0082 16.3514 14.5097C17.0974 14.0112 17.9745 13.7452 18.8718 13.7452C20.0749 13.7452 21.2288 14.2231 22.0795 15.0739C22.9303 15.9247 23.4083 17.0785 23.4083 18.2817Z" fill="#BC995D"/>
</svg>
