<svg width="32" height="32" viewBox="0 0 32 32" fill="none" xmlns="http://www.w3.org/2000/svg">
<path d="M16 21.4697L11.16 24.3923C11.0178 24.4626 10.8858 24.491 10.764 24.4777C10.6431 24.4635 10.5253 24.4217 10.4107 24.3523C10.2951 24.2812 10.208 24.1808 10.1493 24.051C10.0907 23.9212 10.0853 23.7795 10.1333 23.6257L11.4213 18.1457L7.16133 14.4523C7.04133 14.3546 6.96221 14.2377 6.92399 14.1017C6.88577 13.9657 6.89421 13.8355 6.94933 13.711C7.00444 13.5866 7.07777 13.4843 7.16933 13.4043C7.26177 13.327 7.38621 13.2746 7.54266 13.247L13.164 12.7563L15.356 7.56701C15.4164 7.42034 15.5035 7.31457 15.6173 7.24968C15.7311 7.18479 15.8587 7.15234 16 7.15234C16.1413 7.15234 16.2693 7.18479 16.384 7.24968C16.4987 7.31457 16.5853 7.42034 16.644 7.56701L18.836 12.7563L24.456 13.247C24.6133 13.2737 24.7382 13.3266 24.8307 13.4057C24.9231 13.4839 24.9969 13.5857 25.052 13.711C25.1062 13.8355 25.1142 13.9657 25.076 14.1017C25.0378 14.2377 24.9587 14.3546 24.8387 14.4523L20.5787 18.1457L21.8667 23.6257C21.9164 23.7777 21.9115 23.919 21.852 24.0497C21.7924 24.1803 21.7049 24.2808 21.5893 24.351C21.4755 24.4221 21.3578 24.4643 21.236 24.4777C21.1151 24.491 20.9835 24.4626 20.8413 24.3923L16 21.4697Z" fill="#BC995D"/>
</svg>
