<svg width="126" height="126" viewBox="0 0 126 126" fill="none" xmlns="http://www.w3.org/2000/svg">
<path d="M64.8624 2.54395L70.3223 0.359967C72.0276 -0.328139 73.9873 -0.0140036 75.3934 1.16774L79.9109 4.9224C80.8982 5.74514 82.1697 6.16399 83.4562 6.07423L89.32 5.6853C91.16 5.56563 92.9102 6.46316 93.8974 8.01888L97.0388 12.9852C97.7269 14.0772 98.8039 14.8551 100.045 15.1692L105.745 16.6202C107.525 17.069 108.931 18.4751 109.38 20.2552L110.831 25.9545C111.145 27.1961 111.938 28.2881 113.015 28.9612L117.981 32.1026C119.537 33.0899 120.434 34.84 120.315 36.68L119.926 42.5438C119.836 43.8303 120.255 45.1018 121.078 46.0891L124.832 50.6066C126.014 52.0277 126.313 53.9724 125.64 55.6777L123.456 61.1376C122.977 62.3343 122.977 63.6657 123.456 64.8624L125.64 70.3223C126.328 72.0276 126.014 73.9873 124.832 75.3934L121.078 79.9109C120.255 80.8982 119.836 82.1697 119.926 83.4562L120.315 89.32C120.434 91.16 119.537 92.9101 117.981 93.8974L113.015 97.0388C111.923 97.7269 111.145 98.8039 110.831 100.045L109.38 105.745C108.931 107.525 107.525 108.931 105.745 109.38L100.045 110.831C98.8039 111.145 97.7119 111.938 97.0388 113.015L93.8974 117.981C92.9102 119.537 91.16 120.434 89.32 120.315L83.4562 119.926C82.1697 119.836 80.8982 120.255 79.9109 121.078L75.3934 124.832C73.9723 126.014 72.0276 126.313 70.3223 125.64L64.8624 123.456C63.6657 122.977 62.3343 122.977 61.1376 123.456L55.6777 125.64C53.9724 126.328 52.0128 126.014 50.6066 124.832L46.0891 121.078C45.1018 120.255 43.8303 119.836 42.5438 119.926L36.68 120.315C34.84 120.434 33.0899 119.537 32.1026 117.981L28.9612 113.015C28.2731 111.923 27.1961 111.145 25.9545 110.831L20.2552 109.38C18.4751 108.931 17.069 107.525 16.6202 105.745L15.1692 100.045C14.8551 98.8039 14.0622 97.7119 12.9852 97.0388L8.01888 93.8974C6.46316 92.9101 5.56563 91.16 5.6853 89.32L6.07423 83.4562C6.16399 82.1697 5.74514 80.8982 4.9224 79.9109L1.16774 75.3934C-0.0140036 73.9723 -0.31318 72.0276 0.359967 70.3223L2.54395 64.8624C3.02264 63.6657 3.02264 62.3343 2.54395 61.1376L0.359967 55.6777C-0.328139 53.9724 -0.0140036 52.0128 1.16774 50.6066L4.9224 46.0891C5.74514 45.1018 6.16399 43.8303 6.07423 42.5438L5.6853 36.68C5.56563 34.84 6.46316 33.0899 8.01888 32.1026L12.9852 28.9612C14.0772 28.2731 14.8551 27.1961 15.1692 25.9545L16.6202 20.2552C17.069 18.4751 18.4751 17.069 20.2552 16.6202L25.9545 15.1692C27.1961 14.8551 28.2881 14.0622 28.9612 12.9852L32.1026 8.01888C33.0899 6.46316 34.84 5.56563 36.68 5.6853L42.5438 6.07423C43.8303 6.16399 45.1018 5.74514 46.0891 4.9224L50.6066 1.16774C52.0277 -0.0140036 53.9724 -0.31318 55.6777 0.359967L61.1376 2.54395C62.3343 3.02264 63.6657 3.02264 64.8624 2.54395Z" fill="#FEC679"/>
</svg>
