<svg width="41" height="41" viewBox="0 0 41 41" fill="none" xmlns="http://www.w3.org/2000/svg">
<path d="M20.2797 18.6725H31.5645C31.6731 19.2791 31.7508 19.8709 31.7508 20.6648C31.7508 27.4827 27.1743 32.3391 20.2787 32.3391C13.663 32.3391 8.32446 27.0006 8.32446 20.3849C8.32446 13.7692 13.663 8.43066 20.2787 8.43066C23.5004 8.43066 26.209 9.61413 28.295 11.5597L25.0415 14.6887C24.1539 13.833 22.5978 12.8368 20.2787 12.8368C16.2003 12.8368 12.8691 16.2149 12.8691 20.3859C12.8691 24.5569 16.2003 27.935 20.2787 27.935C25.0106 27.935 26.7848 24.542 27.0657 22.7827H20.2787V18.6734L20.2797 18.6725Z" fill="#E4C590"/>
</svg>
