<svg width="41" height="41" viewBox="0 0 41 41" fill="none" xmlns="http://www.w3.org/2000/svg">
<path d="M8.58435 14.4835C8.58435 12.9186 9.20601 11.4178 10.3126 10.3112C11.4191 9.20466 12.9199 8.58301 14.4848 8.58301H26.2858C27.8507 8.58301 29.3515 9.20466 30.4581 10.3112C31.5646 11.4178 32.1863 12.9186 32.1863 14.4835V26.2845C32.1863 27.8494 31.5646 29.3502 30.4581 30.4567C29.3515 31.5633 27.8507 32.1849 26.2858 32.1849H14.4848C12.9199 32.1849 11.4191 31.5633 10.3126 30.4567C9.20601 29.3502 8.58435 27.8494 8.58435 26.2845V14.4835Z" stroke="#E4C590" stroke-width="2.14563" stroke-linecap="round" stroke-linejoin="round"/>
<path d="M27.0227 13.7461V13.7608M15.9593 20.3841C15.9593 21.5578 16.4255 22.6834 17.2554 23.5133C18.0854 24.3433 19.211 24.8095 20.3847 24.8095C21.5583 24.8095 22.6839 24.3433 23.5139 23.5133C24.3438 22.6834 24.81 21.5578 24.81 20.3841C24.81 19.2105 24.3438 18.0849 23.5139 17.2549C22.6839 16.425 21.5583 15.9588 20.3847 15.9588C19.211 15.9588 18.0854 16.425 17.2554 17.2549C16.4255 18.0849 15.9593 19.2105 15.9593 20.3841Z" stroke="#E4C590" stroke-width="2.14563" stroke-linecap="round" stroke-linejoin="round"/>
</svg>
