<svg width="33" height="26" viewBox="0 0 33 26" fill="none" xmlns="http://www.w3.org/2000/svg">
<g clip-path="url(#clip0_1_569)">
<path d="M9.09292 14.3246C9.09292 15.0713 8.50645 15.6754 7.79392 15.6754C7.06798 15.6754 6.48062 15.0722 6.48062 14.3246C6.48062 13.5917 7.06709 12.9885 7.79392 12.9885C8.50645 12.9885 9.09292 13.5917 9.09292 14.3246ZM25.2129 14.3108C25.2129 15.0575 24.6264 15.6616 23.8996 15.6616C23.1727 15.6616 22.5863 15.0584 22.5863 14.3108C22.5863 13.5632 23.1727 12.9747 23.8996 12.9747C24.6264 12.9747 25.2129 13.5641 25.2129 14.3108ZM10.6852 14.3246C10.6852 12.8018 9.4702 11.5512 7.98882 11.5512C6.49403 11.5512 5.29247 12.8009 5.29247 14.3246C5.29247 15.8621 6.49403 17.098 7.98882 17.098C9.4693 17.098 10.6852 15.8621 10.6852 14.3246ZM26.7917 14.3108C26.7917 12.788 25.5901 11.5374 24.0954 11.5374C22.6149 11.5374 21.399 12.7871 21.399 14.3108C21.399 15.8483 22.614 17.0842 24.0954 17.0842C25.5901 17.0842 26.7917 15.8483 26.7917 14.3108ZM11.8724 14.3246C11.8724 16.5371 10.1407 18.3329 7.98882 18.3329C5.83693 18.3329 4.09181 16.5371 4.09181 14.3246C4.09181 12.1259 5.83782 10.33 7.98882 10.33C10.1398 10.33 11.8724 12.1259 11.8724 14.3246ZM27.9932 14.3108C27.9932 16.5233 26.2472 18.3054 24.0962 18.3054C21.9587 18.3054 20.2127 16.5242 20.2127 14.3108C20.2127 12.0974 21.9587 10.3163 24.0962 10.3163C26.2472 10.3163 27.9932 12.0974 27.9932 14.3108ZM14.5267 14.3531C14.5267 10.6896 11.6355 7.71483 8.07285 7.71483C4.52452 7.71483 1.63328 10.6887 1.63328 14.3531C1.63328 18.0175 4.52452 20.9914 8.07285 20.9914C11.6346 20.9914 14.5267 18.0175 14.5267 14.3531ZM23.8584 6.12032C21.5537 5.08582 18.9557 4.52581 16.0921 4.52581C13.2286 4.52581 10.3785 5.08582 8.08805 6.10653C12.5161 6.12124 16.0921 9.79947 16.0921 14.354C16.0921 9.8859 19.5421 6.24906 23.8584 6.12032ZM30.5492 14.3531C30.5492 10.6896 27.6714 7.71483 24.1097 7.71483C20.5479 7.71483 17.6558 10.6887 17.6558 14.3531C17.6558 18.0175 20.547 20.9914 24.1097 20.9914C27.6723 20.9914 30.5492 18.0175 30.5492 14.3531ZM26.8337 6.22147H32.1835C31.3449 7.22747 30.7307 8.57738 30.5769 9.51164C31.5407 10.8763 32.1138 12.5434 32.1138 14.354C32.1138 18.9086 28.5234 22.5868 24.1097 22.5868C21.5957 22.5868 19.3598 21.4089 17.8936 19.555C17.8936 19.555 17.2374 20.3596 16.0913 22.127C15.8955 21.7105 14.904 20.2594 14.3032 19.5412C12.8362 21.4089 10.5877 22.5877 8.07285 22.5877C3.65911 22.5877 0.0687564 18.9095 0.0687564 14.3549C0.0687564 12.5443 0.641819 10.8781 1.60556 9.51256C1.45179 8.5783 0.837608 7.22839 -0.000976562 6.22239H5.09758C7.83594 4.34006 11.817 3.16211 16.0913 3.16211C20.3655 3.16211 24.0954 4.34006 26.8337 6.22239V6.22147Z" fill="#E4C590"/>
</g>
<defs>
<clipPath id="clip0_1_569">
<rect width="32.1845" height="25.7476" fill="white"/>
</clipPath>
</defs>
</svg>
